<svg xmlns="http://www.w3.org/2000/svg" viewBox="0 0 32 32">
  <rect width="32" height="32" rx="6" fill="#0a0a0f"/>
  <rect x="1" y="1" width="30" height="30" rx="5" fill="none" stroke="#00ff88" stroke-width="0.5" opacity="0.3"/>
  <path d="M16 6 L16 8 M16 24 L16 26 M6 16 L8 16 M24 16 L26 16" stroke="#00ff88" stroke-width="0.5" opacity="0.2"/>
  <circle cx="16" cy="16" r="9" fill="none" stroke="#00ff88" stroke-width="1.5" opacity="0.15"/>
  <path d="M16 8 C12.13 8 9 11.13 9 15 L9 17 C9 17.55 9.45 18 10 18 L22 18 C22.55 18 23 17.55 23 17 L23 15 C23 11.13 19.87 8 16 8 Z" fill="none" stroke="#00ff88" stroke-width="1.5" stroke-linecap="round"/>
  <rect x="11" y="18" width="10" height="7" rx="1.5" fill="#00ff88" opacity="0.9"/>
  <circle cx="16" cy="21.5" r="1.5" fill="#0a0a0f"/>
  <line x1="16" y1="22.5" x2="16" y2="24" stroke="#0a0a0f" stroke-width="1.2" stroke-linecap="round"/>
</svg>
